<?xml version="1.0" encoding="utf-8"?>
<!-- Generator: Adobe Illustrator 16.0.0, SVG Export Plug-In . SVG Version: 6.00 Build 0)  -->
<!DOCTYPE svg PUBLIC "-//W3C//DTD SVG 1.1//EN" "http://www.w3.org/Graphics/SVG/1.1/DTD/svg11.dtd">
<svg version="1.1" id="Layer_1" xmlns="http://www.w3.org/2000/svg" xmlns:xlink="http://www.w3.org/1999/xlink" x="0px" y="0px"
	 width="107px" height="150px" viewBox="0 0 107 150" enable-background="new 0 0 107 150" xml:space="preserve">
<g>
	<g>
		<defs>
			<rect id="SVGID_1_" x="-79.277" y="0" width="70.684" height="52.143"/>
		</defs>
		<clipPath id="SVGID_2_">
			<use xlink:href="#SVGID_1_"  overflow="visible"/>
		</clipPath>
		<g clip-path="url(#SVGID_2_)">
			<defs>
				<rect id="SVGID_3_" x="-79.277" y="0" width="70.684" height="52.143"/>
			</defs>
			<clipPath id="SVGID_4_">
				<use xlink:href="#SVGID_3_"  overflow="visible"/>
			</clipPath>
			<path clip-path="url(#SVGID_4_)" fill="#007CBA" d="M-64.589,23.527c-0.283,0-0.555,0.05-0.806,0.139l-0.292,0.064l0.175-1.779
				c0,0,0.2-1.897,0.239-2.193c0.134-1.47,0.252-1.954,1.175-2.059c1.041-0.118,1.8,0.335,2.899,2.039
				c0.462,0.715,1.145,1.32,2.058,1.32c1.362,0,2.466-1.105,2.466-2.467c0-0.276-0.074-0.536-0.13-0.793
				c-0.553-2.54-4.86-6.183-8.391-4.976c-3.718,1.271-4.447,3.892-4.578,4.717l-0.091,0.867l-0.636,6.37l-1.637,0.358
				c-0.969,0.302-1.658,1.27-1.658,2.338c0,1.315,1.067,2.382,2.383,2.382c0.141,0,0.28-0.011,0.415-0.036l-0.42,4.259l-0.304,2.858
				c-0.087,0.4-0.277,0.839-0.408,0.963c-0.879,0.369-1.497,1.24-1.497,2.254c0,1.348,1.094,2.44,2.442,2.44
				c0.334,0,0.654-0.066,0.946-0.19c2.548-0.824,3.039-3.546,3.131-4.391l0.013,0.002l0.28-2.854l0.624-6.334
				c0.877-0.188,1.68-0.392,2.23-0.596c1.017-0.275,1.765-1.206,1.765-2.311C-62.195,24.6-63.267,23.527-64.589,23.527"/>
			<path clip-path="url(#SVGID_4_)" fill="#007CBA" d="M-55.967,45.791l0.003-4.621l1.894,0c1.876,0.002,1.868,2.856,0,2.855
				l-0.931-0.001l-0.001,1.766H-55.967z M-54.151,43.127c0.648,0,0.648-1.037,0-1.037l-0.849,0l-0.001,1.035L-54.151,43.127z"/>
			<path clip-path="url(#SVGID_4_)" fill="#007CBA" d="M-48.148,45.796l-0.971-1.768h-0.465l-0.001,1.768l-0.964-0.002l0.002-4.627
				l1.903,0.002c1.718,0.001,1.885,2.325,0.469,2.717l1.12,1.91H-48.148z M-49.583,43.129h0.851c0.653,0,0.653-1.035,0-1.035
				l-0.849-0.002L-49.583,43.129z"/>
			<rect x="-45.064" y="41.17" clip-path="url(#SVGID_4_)" fill="#007CBA" width="0.965" height="4.627"/>
			<polygon clip-path="url(#SVGID_4_)" fill="#007CBA" points="-40.699,45.799 -41.665,45.799 -41.661,41.073 -41.406,41.073 
				-38.972,43.794 -38.971,41.18 -38,41.181 -38.002,45.898 -38.259,45.898 -40.699,43.282 			"/>
			<polygon clip-path="url(#SVGID_4_)" fill="#007CBA" points="-34.77,45.803 -34.768,42.1 -35.968,42.1 -35.968,41.181 
				-32.602,41.183 -32.602,42.102 -33.804,42.101 -33.805,45.805 			"/>
			<path clip-path="url(#SVGID_4_)" fill="#007CBA" d="M-30.626,44.536c0.553,0.377,1.153,0.39,1.377,0.371
				c0.282-0.02,0.524-0.213,0.498-0.466c-0.02-0.266-0.229-0.382-0.498-0.472c-0.756-0.265-1.43-0.635-1.43-1.412
				c0.002-0.777,0.562-1.373,1.365-1.41c0.248-0.013,0.578-0.013,1.199,0.195l-0.122,0.892c-0.532-0.208-0.836-0.202-0.985-0.195
				c-0.343,0.019-0.5,0.26-0.478,0.518c0.028,0.258,0.262,0.375,0.539,0.466c0.75,0.267,1.396,0.681,1.396,1.419
				c-0.002,0.77-0.555,1.358-1.457,1.404c-0.271,0.018-0.872-0.014-1.525-0.338L-30.626,44.536z"/>
			<path clip-path="url(#SVGID_4_)" fill="#007CBA" d="M-53.248,27.637c1.088-0.196,1.925-1.153,1.948-2.324
				c0.027-1.328-1.008-2.427-2.31-2.452c-0.288-0.006-0.565,0.041-0.821,0.131c-0.483,0.142-1.449,0.454-2.629,1.613
				c-0.426-0.561-1.087-0.829-1.834-0.843c-1.313-0.027-2.256,1.05-2.425,2.379c-0.043,0.342-0.139,0.868-0.182,1.381l-0.004-0.002
				l-0.028,0.255l-0.539,4.625l-0.074,0.646c-0.083,0.559-0.114,1.12-0.108,1.469c0.021,1.342,1.085,2.407,2.373,2.383
				c1.286-0.023,2.172-1.135,2.29-2.47c0.01-0.127,0.057-0.447,0.057-0.447l0.098-0.837l0.453-3.874l0.03-0.263
				c0.357-0.475,1.25-1.016,3.378-1.311C-53.457,27.682-53.35,27.66-53.248,27.637"/>
			<path clip-path="url(#SVGID_4_)" fill="#007CBA" d="M-15.509,33.046c-0.094-0.135-0.227-0.346-0.249-0.701l0.028,0.003
				l0.435-4.426l-0.021-0.003c0.018-1.665-1.035-3.243-2.3-3.92c-2.792-1.273-4.643-0.226-5.41,0.4l1.136-7.772
				c0.037-0.166,0.057-0.337,0.057-0.514c0-1.297-1.049-2.347-2.346-2.347c-1.207,0-2.197,0.91-2.332,2.081l-0.011-0.001
				l-2.156,18.115c-0.035,0.161-0.055,0.329-0.055,0.502c0,1.297,1.053,2.347,2.348,2.347c1.296,0,2.346-1.05,2.346-2.347
				l0.023,0.003l0.461-4.689c0.167-0.944,1.131-1.718,2.27-1.491c0.844,0.17,1.038,0.952,1.083,1.283l-0.264,2.595h0.014
				c-0.076,0.845-0.134,3.61,2.201,4.925c0.261,0.177,0.56,0.308,0.888,0.373c1.324,0.268,2.612-0.589,2.877-1.911
				C-14.286,34.556-14.719,33.583-15.509,33.046"/>
			<path clip-path="url(#SVGID_4_)" fill="#007CBA" d="M-40.438,33.124c-0.754-1.851-3.045,0.174-4.803,0.356
				c-2.636,0.273-2.548-1.051-2.434-1.035c2.26,0.313,6.397-0.745,7.052-4.015c0.537-2.678-0.84-5.609-4.69-5.568
				c-2.42,0.025-5.147,1.778-6.194,5.161c-0.496,1.606-0.601,3.632,0.071,5.304C-48.664,40.242-38.952,35.739-40.438,33.124
				 M-48.008,29.212c-0.151-0.648,0.155-1.356,0.512-1.958c1.227-2.067,4.264-1.272,3.569,0.379c0,0-0.486,1.379-2.647,1.588
				C-46.575,29.222-47.979,29.335-48.008,29.212"/>
			<path clip-path="url(#SVGID_4_)" fill="#007CBA" d="M-54.995,12.488c-0.002,0.043,0,0.086,0.009,0.128
				c0.972,4.11,1.411,4.387,1.577,4.489c0.464,0.29,2.41,0.51,3.529,0.617c0.015,0,0.031,0.001,0.045,0.001c0,0,0.001,0,0.003,0
				c1.965,0.252,4.861,0.542,7.99,0.575h0.006c0.014,0,0.026-0.003,0.039-0.004c0.013,0.001,0.026,0.004,0.04,0.004h0.006
				c0.162-0.003,0.322-0.006,0.482-0.009c0.003,0,0.006,0,0.009,0c0.004,0,0.008,0,0.012,0c2.795-0.055,5.362-0.307,7.411-0.584
				c1.136-0.111,2.926-0.322,3.369-0.599c0.163-0.102,0.602-0.379,1.573-4.489c0-0.001,0.002-0.003,0.002-0.006l0.75-3.386
				c0.032-0.138,0-0.283-0.081-0.395c-0.084-0.114-0.215-0.187-0.354-0.197l-2.705-0.225c-0.053-0.003-0.106,0-0.157,0.013h-0.036
				c-0.133-0.002-0.383-0.005-0.611,0.161c-0.193,0.138-0.287,0.343-0.386,0.558c-0.036,0.078-0.075,0.163-0.122,0.25
				c-0.541,1.005-1.322,1.468-2.252,1.338c-1.303-0.181-1.427-1.65-1.433-2.151c0.021-0.159,0.049-0.607-0.215-0.982
				c-0.04-0.052-0.087-0.097-0.141-0.132l-4.872-3.065c-0.147-0.216-0.441-0.282-0.666-0.139l-5.052,3.205
				c-0.054,0.034-0.101,0.079-0.138,0.131c-0.265,0.375-0.238,0.823-0.218,0.982c-0.005,0.501-0.128,1.97-1.432,2.151
				c-0.935,0.129-1.711-0.333-2.251-1.338c-0.05-0.087-0.087-0.172-0.122-0.25c-0.101-0.215-0.194-0.42-0.388-0.56
				c-0.229-0.164-0.475-0.16-0.611-0.159h-0.035c-0.051-0.013-0.105-0.016-0.156-0.013l-2.704,0.225
				c-0.14,0.011-0.269,0.083-0.354,0.197c-0.084,0.112-0.114,0.257-0.084,0.395L-54.995,12.488z M-53.785,13.395l0.84,0.397
				c0.344,0.619,0.594,1.904,0.707,2.642c-0.291-0.051-0.51-0.099-0.617-0.143C-53.054,15.987-53.442,14.715-53.785,13.395
				 M-42.273,17.301c-0.006-0.001-0.543-0.269-0.543-3.151c0-2.119,0.656-3.261,0.923-3.261s0.923,1.142,0.923,3.265
				c0,0.854,0,2.835-0.32,3.157c-0.157,0.003-0.313,0.006-0.471,0.009c-0.012,0-0.023,0.003-0.035,0.004
				c-0.011-0.001-0.022-0.004-0.033-0.004c-0.139-0.002-0.279-0.004-0.417-0.006C-42.258,17.31-42.265,17.305-42.273,17.301
				 M-31.021,16.29c-0.119,0.045-0.361,0.098-0.673,0.153c0.111-0.737,0.363-2.03,0.708-2.651l0.899-0.425
				C-30.43,14.694-30.821,15.98-31.021,16.29 M-37.251,8.455c-0.005,0.028-0.006,0.058-0.006,0.088
				c-0.005,1.749,0.868,2.958,2.277,3.155c1.331,0.186,2.517-0.487,3.248-1.844c0.057-0.108,0.107-0.21,0.149-0.305
				c0.02-0.047,0.048-0.107,0.071-0.15c0.009,0,0.018,0,0.026,0c0.055,0,0.121,0.002,0.195-0.01l2.073,0.171l-0.57,2.584
				l-1.749,0.824c-0.08,0.038-0.148,0.096-0.199,0.17c-0.595,0.897-0.898,2.92-0.964,3.414c-0.388,0.06-0.803,0.121-1.244,0.181
				c-0.047,0.005-0.097,0.009-0.147,0.015c-0.026,0.001-0.051,0.009-0.078,0.015c-1.722,0.227-3.795,0.435-6.054,0.518
				c0.074-0.256,0.108-0.497,0.127-0.639c0.103-0.746,0.103-1.671,0.103-2.492c0-1.815-0.485-3.646-1.417-4.12l-0.022-4.428
				l4.165,2.619C-37.239,8.306-37.242,8.413-37.251,8.455 M-52.568,9.389c0.055,0.009,0.106,0.01,0.152,0.01
				c0.023,0,0.045,0,0.069,0c0.023,0.043,0.049,0.104,0.07,0.15c0.044,0.095,0.091,0.197,0.149,0.305
				c0.73,1.357,1.914,2.03,3.248,1.844c1.409-0.197,2.281-1.404,2.277-3.155c0-0.024-0.005-0.057-0.007-0.083
				c-0.007-0.047-0.012-0.154,0.017-0.239l4.183-2.654l0.021,4.472c-0.924,0.483-1.406,2.304-1.406,4.111
				c0,1.434,0.12,2.458,0.374,3.13c-3.398-0.127-6.341-0.516-7.815-0.741c-0.067-0.512-0.368-2.511-0.961-3.401
				c-0.048-0.074-0.118-0.132-0.197-0.17l-1.667-0.787l-0.581-2.621L-52.568,9.389z"/>
			<path clip-path="url(#SVGID_4_)" fill="#007CBA" d="M-33.724,26.865c0.657,0.217,1.848,0.702,2.503,0.423
				c0.815-0.349,1.343-1.206,1.292-2.091c-0.048-0.871-0.579-1.558-1.287-1.874l0.003-0.011c0,0-4.803-2.077-6.976,1.451
				c-1.756,2.85-0.42,4.944,0.876,5.504c0.876,0.373,3.695,1.072,3.534,2.234c0,0-0.325,1.344-3.183-0.362
				c-2.817-1.679-4.06,2.274-1.056,3.796c3.004,1.521,0,0,0,0c1.248,0.63,3.344,1.307,5.711,0.554
				c3.441-1.093,3.386-5.908,1.194-7.212c-2.19-1.302-3.939-1.08-3.406-2.13C-34.362,26.843-34.02,26.818-33.724,26.865"/>
		</g>
	</g>
</g>
<g>
	<g>
		<defs>
			<rect id="SVGID_5_" x="-6.69" y="-4.875" width="119.63" height="88.25"/>
		</defs>
		<clipPath id="SVGID_6_">
			<use xlink:href="#SVGID_5_"  overflow="visible"/>
		</clipPath>
		<g clip-path="url(#SVGID_6_)">
			<defs>
				<rect id="SVGID_7_" x="-6.69" y="-4.875" width="119.63" height="88.25"/>
			</defs>
			<clipPath id="SVGID_8_">
				<use xlink:href="#SVGID_7_"  overflow="visible"/>
			</clipPath>
			<path clip-path="url(#SVGID_8_)" fill="#007CBA" d="M18.168,34.944c-0.479,0-0.938,0.084-1.365,0.236l-0.494,0.108l0.296-3.012
				c0,0,0.338-3.211,0.404-3.711c0.227-2.489,0.428-3.307,1.99-3.484c1.76-0.2,3.046,0.567,4.906,3.451
				c0.782,1.211,1.938,2.234,3.483,2.234c2.306,0,4.175-1.871,4.175-4.175c0-0.468-0.126-0.907-0.22-1.343
				c-0.935-4.297-8.226-10.464-14.202-8.42c-6.292,2.152-7.526,6.586-7.748,7.983l-0.154,1.467L8.163,37.058l-2.771,0.606
				c-1.639,0.512-2.806,2.149-2.806,3.957c0,2.226,1.806,4.031,4.034,4.031c0.239,0,0.474-0.018,0.703-0.061L6.612,52.8
				l-0.514,4.838c-0.148,0.678-0.47,1.42-0.69,1.63c-1.488,0.624-2.534,2.098-2.534,3.815c0,2.281,1.852,4.131,4.132,4.131
				c0.566,0,1.107-0.112,1.602-0.321c4.313-1.395,5.143-6.003,5.3-7.431l0.022,0.003l0.475-4.83l1.056-10.72
				c1.484-0.318,2.843-0.663,3.774-1.008c1.721-0.466,2.986-2.041,2.986-3.911C22.22,36.761,20.407,34.944,18.168,34.944"/>
			<path clip-path="url(#SVGID_8_)" fill="#007CBA" d="M32.762,72.625l0.005-7.821l3.206,0.002c3.175,0.003,3.161,4.833-0.001,4.832
				l-1.575-0.002l-0.002,2.989H32.762z M35.835,68.118c1.096,0,1.096-1.754,0-1.755l-1.437-0.001l-0.001,1.751L35.835,68.118z"/>
			<path clip-path="url(#SVGID_8_)" fill="#007CBA" d="M45.995,72.634l-1.643-2.992h-0.787l-0.002,2.992l-1.632-0.004l0.003-7.832
				l3.221,0.004c2.908,0.001,3.191,3.935,0.794,4.599l1.894,3.232H45.995z M43.565,68.12h1.439c1.105,0,1.105-1.751,0-1.751
				l-1.437-0.002L43.565,68.12z"/>
			<rect x="51.215" y="64.805" clip-path="url(#SVGID_8_)" fill="#007CBA" width="1.633" height="7.832"/>
			<polygon clip-path="url(#SVGID_8_)" fill="#007CBA" points="58.602,72.64 56.967,72.64 56.974,64.642 57.405,64.642 
				61.525,69.246 61.526,64.821 63.17,64.823 63.167,72.808 62.732,72.808 58.602,68.379 			"/>
			<polygon clip-path="url(#SVGID_8_)" fill="#007CBA" points="68.638,72.646 68.641,66.379 66.609,66.379 66.609,64.824 
				72.307,64.827 72.307,66.382 70.272,66.381 70.27,72.648 			"/>
			<path clip-path="url(#SVGID_8_)" fill="#007CBA" d="M75.65,70.501c0.935,0.639,1.951,0.66,2.33,0.628
				c0.477-0.034,0.888-0.36,0.842-0.789c-0.033-0.451-0.387-0.647-0.842-0.799c-1.28-0.449-2.421-1.074-2.421-2.389
				c0.003-1.315,0.951-2.323,2.31-2.386c0.42-0.022,0.978-0.022,2.03,0.331l-0.207,1.509c-0.9-0.351-1.416-0.341-1.668-0.33
				c-0.581,0.031-0.845,0.439-0.809,0.876c0.047,0.438,0.443,0.636,0.911,0.789c1.269,0.451,2.363,1.153,2.363,2.401
				c-0.003,1.302-0.938,2.298-2.466,2.376c-0.458,0.029-1.475-0.023-2.581-0.573L75.65,70.501z"/>
			<path clip-path="url(#SVGID_8_)" fill="#007CBA" d="M37.364,41.9c1.842-0.331,3.259-1.952,3.296-3.933
				c0.046-2.247-1.706-4.108-3.91-4.149c-0.487-0.01-0.956,0.069-1.389,0.222c-0.818,0.241-2.453,0.768-4.449,2.73
				c-0.721-0.949-1.84-1.402-3.104-1.427c-2.223-0.045-3.818,1.777-4.105,4.026c-0.073,0.579-0.235,1.47-0.308,2.338l-0.006-0.003
				l-0.047,0.432l-0.912,7.827l-0.126,1.093c-0.141,0.945-0.193,1.896-0.183,2.486c0.037,2.272,1.837,4.073,4.016,4.034
				c2.177-0.04,3.677-1.921,3.875-4.18c0.017-0.216,0.095-0.757,0.095-0.757l0.166-1.417l0.766-6.557l0.051-0.446
				c0.604-0.803,2.115-1.719,5.718-2.219C37.009,41.976,37.192,41.939,37.364,41.9"/>
			<path clip-path="url(#SVGID_8_)" fill="#007CBA" d="M101.235,51.055c-0.159-0.229-0.385-0.585-0.421-1.186l0.048,0.005
				l0.735-7.492l-0.036-0.004c0.03-2.817-1.751-5.489-3.893-6.635c-4.727-2.154-7.858-0.383-9.155,0.678l1.922-13.154
				c0.063-0.28,0.096-0.571,0.096-0.87c0-2.196-1.775-3.973-3.971-3.973c-2.043,0-3.719,1.54-3.946,3.521l-0.019-0.001l-3.649,30.66
				c-0.06,0.272-0.093,0.556-0.093,0.849c0,2.195,1.781,3.973,3.973,3.973c2.193,0,3.971-1.778,3.971-3.973l0.039,0.005l0.78-7.936
				c0.282-1.598,1.913-2.908,3.842-2.523c1.428,0.288,1.757,1.611,1.832,2.171l-0.446,4.391l0.024,0
				c-0.13,1.429-0.228,6.11,3.725,8.335c0.441,0.3,0.947,0.521,1.502,0.631c2.24,0.453,4.421-0.998,4.87-3.235
				C103.305,53.611,102.572,51.963,101.235,51.055"/>
			<path clip-path="url(#SVGID_8_)" fill="#007CBA" d="M59.045,51.187c-1.276-3.133-5.154,0.294-8.129,0.602
				c-4.462,0.463-4.313-1.778-4.12-1.751c3.826,0.529,10.828-1.261,11.936-6.796c0.909-4.533-1.422-9.493-7.938-9.424
				c-4.097,0.042-8.712,3.009-10.484,8.735c-0.839,2.717-1.017,6.146,0.12,8.977C45.122,63.234,61.56,55.613,59.045,51.187
				 M46.231,44.567c-0.256-1.097,0.263-2.295,0.866-3.313c2.076-3.499,7.216-2.153,6.041,0.642c0,0-0.822,2.334-4.48,2.687
				C48.658,44.583,46.28,44.775,46.231,44.567"/>
			<path clip-path="url(#SVGID_8_)" fill="#007CBA" d="M34.406,16.261c-0.004,0.073,0,0.146,0.015,0.217
				c1.645,6.957,2.388,7.425,2.669,7.598c0.785,0.491,4.079,0.864,5.974,1.043c0.024,0.001,0.052,0.002,0.076,0.002
				c0,0,0.002-0.001,0.005-0.001c3.326,0.426,8.227,0.916,13.522,0.973h0.011c0.022,0,0.043-0.005,0.065-0.006
				c0.021,0.001,0.044,0.006,0.067,0.006h0.01c0.274-0.005,0.545-0.011,0.816-0.015c0.007,0,0.01,0.001,0.017,0.001
				c0.006,0,0.014-0.001,0.021-0.001c4.73-0.093,9.076-0.52,12.543-0.989c1.923-0.188,4.952-0.545,5.702-1.014
				c0.276-0.172,1.02-0.641,2.663-7.598c0-0.002,0.003-0.005,0.003-0.01l1.269-5.73c0.054-0.233,0-0.479-0.138-0.669
				c-0.142-0.193-0.363-0.315-0.6-0.333l-4.577-0.38c-0.09-0.005-0.181,0-0.267,0.021h-0.06c-0.226-0.004-0.648-0.008-1.035,0.272
				c-0.326,0.234-0.485,0.581-0.654,0.945c-0.06,0.132-0.126,0.276-0.206,0.424c-0.915,1.701-2.237,2.484-3.813,2.265
				c-2.205-0.306-2.415-2.792-2.424-3.64c0.036-0.27,0.083-1.027-0.365-1.663c-0.067-0.088-0.147-0.164-0.237-0.224l-8.245-5.188
				c-0.25-0.366-0.747-0.478-1.127-0.235l-8.551,5.424c-0.091,0.058-0.171,0.134-0.232,0.222c-0.448,0.634-0.403,1.394-0.369,1.663
				c-0.008,0.848-0.218,3.334-2.423,3.64c-1.582,0.218-2.896-0.564-3.81-2.265c-0.085-0.148-0.147-0.292-0.207-0.424
				c-0.17-0.364-0.33-0.711-0.657-0.948c-0.387-0.277-0.803-0.271-1.035-0.269h-0.059c-0.086-0.021-0.178-0.026-0.264-0.021
				l-4.577,0.38c-0.237,0.019-0.456,0.141-0.599,0.333c-0.141,0.19-0.193,0.436-0.141,0.669L34.406,16.261z M36.454,17.796
				l1.421,0.671c0.582,1.047,1.005,3.223,1.197,4.472c-0.492-0.086-0.864-0.168-1.044-0.242
				C37.692,22.183,37.035,20.03,36.454,17.796 M55.938,24.407c-0.01-0.001-0.919-0.456-0.919-5.333c0-3.587,1.109-5.519,1.563-5.519
				c0.451,0,1.562,1.932,1.562,5.525c0,1.446,0,4.798-0.542,5.342c-0.266,0.006-0.53,0.011-0.798,0.016
				c-0.02,0-0.039,0.005-0.059,0.006c-0.02-0.001-0.037-0.006-0.057-0.006c-0.235-0.005-0.473-0.008-0.706-0.011
				C55.963,24.422,55.952,24.414,55.938,24.407 M74.981,22.696c-0.201,0.077-0.612,0.166-1.141,0.258
				c0.189-1.247,0.615-3.435,1.2-4.487l1.521-0.719C75.982,19.995,75.319,22.173,74.981,22.696 M64.438,9.436
				c-0.009,0.048-0.012,0.098-0.012,0.148c-0.008,2.96,1.469,5.007,3.854,5.339c2.252,0.315,4.259-0.824,5.497-3.122
				c0.096-0.182,0.181-0.355,0.252-0.516c0.033-0.079,0.081-0.181,0.12-0.254c0.015,0,0.03,0,0.045,0
				c0.093,0,0.204,0.004,0.33-0.016l3.509,0.29l-0.966,4.374l-2.96,1.395c-0.136,0.064-0.251,0.163-0.336,0.288
				c-1.008,1.519-1.521,4.943-1.632,5.777c-0.656,0.101-1.358,0.206-2.105,0.307c-0.08,0.009-0.165,0.015-0.249,0.025
				c-0.044,0.002-0.086,0.015-0.131,0.026c-2.914,0.384-6.424,0.735-10.246,0.876c0.125-0.433,0.184-0.841,0.216-1.081
				c0.174-1.263,0.174-2.829,0.174-4.217c0-3.073-0.822-6.172-2.399-6.973l-0.037-7.494l7.049,4.433
				C64.458,9.184,64.452,9.364,64.438,9.436 M38.515,11.016c0.093,0.016,0.18,0.016,0.257,0.016c0.039,0,0.078,0,0.118,0
				c0.038,0.074,0.083,0.175,0.119,0.254c0.074,0.161,0.154,0.334,0.252,0.516c1.236,2.297,3.238,3.437,5.498,3.122
				c2.384-0.333,3.86-2.376,3.854-5.339c0-0.042-0.009-0.096-0.013-0.14c-0.013-0.08-0.02-0.261,0.029-0.404l7.08-4.492l0.034,7.568
				c-1.563,0.817-2.379,3.9-2.379,6.958c0,2.427,0.204,4.16,0.633,5.296c-5.751-0.216-10.733-0.873-13.228-1.253
				c-0.113-0.867-0.623-4.25-1.627-5.756c-0.082-0.125-0.2-0.223-0.333-0.288l-2.822-1.332l-0.982-4.437L38.515,11.016z"/>
			<path clip-path="url(#SVGID_8_)" fill="#007CBA" d="M70.408,40.594c1.111,0.368,3.128,1.188,4.237,0.715
				c1.379-0.591,2.272-2.04,2.187-3.538c-0.082-1.474-0.979-2.636-2.178-3.172l0.006-0.019c0,0-8.129-3.515-11.807,2.456
				c-2.973,4.824-0.713,8.368,1.482,9.315c1.482,0.632,6.255,1.814,5.981,3.782c0,0-0.549,2.274-5.387-0.612
				c-4.769-2.842-6.871,3.849-1.788,6.425c5.084,2.574,0,0,0,0c2.111,1.067,5.66,2.211,9.667,0.937
				c5.824-1.85,5.731-9.998,2.021-12.207c-3.707-2.204-6.667-1.828-5.765-3.605C69.328,40.558,69.906,40.515,70.408,40.594"/>
		</g>
	</g>
</g>
<rect x="112.939" fill="none" stroke="#B5B5B5" stroke-miterlimit="10" width="107" height="75"/>
<rect x="112.939" y="75" fill="none" stroke="#B5B5B5" stroke-miterlimit="10" width="107" height="75"/>
<g>
	<defs>
		<rect id="SVGID_9_" x="18.895" y="92.792" width="69.208" height="39.417"/>
	</defs>
	<clipPath id="SVGID_10_">
		<use xlink:href="#SVGID_9_"  overflow="visible"/>
	</clipPath>
	<g clip-path="url(#SVGID_10_)">
		<g>
			<defs>
				<rect id="SVGID_11_" x="-37.087" y="84.193" width="172.782" height="127.459"/>
			</defs>
			<clipPath id="SVGID_12_">
				<use xlink:href="#SVGID_11_"  overflow="visible"/>
			</clipPath>
			<g clip-path="url(#SVGID_12_)">
				<defs>
					<rect id="SVGID_13_" x="-37.087" y="84.193" width="172.782" height="127.459"/>
				</defs>
				<clipPath id="SVGID_14_">
					<use xlink:href="#SVGID_13_"  overflow="visible"/>
				</clipPath>
				<path clip-path="url(#SVGID_14_)" fill="#007CBA" d="M-1.183,141.704c-0.693,0-1.355,0.122-1.971,0.341l-0.714,0.155l0.428-4.35
					c0,0,0.488-4.638,0.583-5.36c0.328-3.595,0.618-4.776,2.874-5.032c2.543-0.289,4.4,0.819,7.086,4.983
					c1.129,1.749,2.799,3.228,5.03,3.228c3.33,0,6.03-2.702,6.03-6.03c0-0.676-0.182-1.31-0.318-1.94
					c-1.351-6.207-11.88-15.113-20.512-12.162c-9.088,3.108-10.87,9.513-11.189,11.53l-0.223,2.119l-1.555,15.571l-4.002,0.876
					c-2.367,0.739-4.052,3.104-4.052,5.715c0,3.215,2.608,5.822,5.826,5.822c0.345,0,0.685-0.025,1.015-0.088l-1.026,10.411
					l-0.743,6.987c-0.214,0.979-0.678,2.051-0.997,2.354c-2.149,0.901-3.66,3.03-3.66,5.51c0,3.294,2.675,5.966,5.968,5.966
					c0.818,0,1.598-0.162,2.313-0.464c6.229-2.015,7.427-8.67,7.654-10.732l0.032,0.005l0.685-6.977l1.525-15.482
					c2.144-0.46,4.105-0.958,5.451-1.456c2.486-0.673,4.313-2.947,4.313-5.648C4.668,144.328,2.049,141.704-1.183,141.704"/>
				<path clip-path="url(#SVGID_14_)" fill="#007CBA" d="M19.894,196.126l0.008-11.295l4.63,0.002
					c4.585,0.006,4.565,6.98-0.002,6.979l-2.274-0.003l-0.003,4.316H19.894z M24.332,189.616c1.584,0,1.584-2.533,0-2.534
					l-2.075-0.003l-0.002,2.53L24.332,189.616z"/>
				<path clip-path="url(#SVGID_14_)" fill="#007CBA" d="M39.006,196.14l-2.373-4.321h-1.136l-0.003,4.321l-2.357-0.006
					l0.005-11.312l4.651,0.007c4.2,0.002,4.609,5.684,1.147,6.642l2.736,4.669H39.006z M35.498,189.62h2.079
					c1.597,0,1.597-2.529,0-2.529l-2.076-0.004L35.498,189.62z"/>
				
					<rect x="42.069" y="189.308" transform="matrix(-6.043155e-004 1 -1 -6.043155e-004 238.2402 142.8773)" clip-path="url(#SVGID_14_)" fill="#007CBA" width="11.312" height="2.358"/>
				<polygon clip-path="url(#SVGID_14_)" fill="#007CBA" points="57.215,196.147 54.854,196.147 54.863,184.596 55.486,184.596 
					61.437,191.246 61.438,184.855 63.813,184.857 63.809,196.39 63.181,196.39 57.215,189.994 				"/>
				<polygon clip-path="url(#SVGID_14_)" fill="#007CBA" points="71.71,196.156 71.713,187.105 68.78,187.105 68.78,184.859 
					77.009,184.863 77.009,187.109 74.071,187.107 74.066,196.16 				"/>
				<path clip-path="url(#SVGID_14_)" fill="#007CBA" d="M81.837,193.059c1.351,0.922,2.819,0.953,3.366,0.906
					c0.688-0.049,1.282-0.52,1.216-1.14c-0.048-0.65-0.559-0.935-1.216-1.153c-1.85-0.647-3.496-1.552-3.496-3.45
					c0.005-1.9,1.373-3.355,3.335-3.446c0.606-0.033,1.413-0.033,2.933,0.478l-0.299,2.18c-1.3-0.508-2.045-0.493-2.409-0.477
					c-0.839,0.046-1.221,0.635-1.168,1.266c0.068,0.631,0.641,0.918,1.316,1.139c1.832,0.651,3.414,1.665,3.414,3.469
					c-0.005,1.88-1.356,3.318-3.563,3.431c-0.662,0.043-2.13-0.033-3.728-0.827L81.837,193.059z"/>
				<path clip-path="url(#SVGID_14_)" fill="#007CBA" d="M26.542,151.751c2.66-0.479,4.706-2.819,4.76-5.681
					c0.067-3.246-2.463-5.934-5.646-5.993c-0.704-0.014-1.381,0.1-2.006,0.321c-1.182,0.347-3.542,1.108-6.426,3.942
					c-1.041-1.37-2.657-2.025-4.483-2.061c-3.211-0.064-5.515,2.566-5.929,5.815c-0.106,0.836-0.34,2.122-0.444,3.377l-0.009-0.005
					l-0.069,0.624l-1.316,11.305l-0.182,1.578c-0.204,1.365-0.279,2.738-0.264,3.591c0.053,3.281,2.653,5.883,5.8,5.826
					c3.145-0.058,5.311-2.773,5.597-6.037c0.024-0.313,0.138-1.095,0.138-1.095l0.24-2.046l1.105-9.47l0.073-0.644
					c0.874-1.16,3.056-2.483,8.259-3.204C26.029,151.859,26.292,151.807,26.542,151.751"/>
				<path clip-path="url(#SVGID_14_)" fill="#007CBA" d="M118.79,164.973c-0.23-0.33-0.556-0.845-0.607-1.712l0.069,0.008
					l1.062-10.82l-0.052-0.007c0.044-4.068-2.529-7.928-5.622-9.583c-6.826-3.111-11.35-0.553-13.224,0.979l2.775-18.999
					c0.092-0.404,0.14-0.825,0.14-1.256c0-3.171-2.565-5.737-5.735-5.737c-2.95,0-5.371,2.225-5.7,5.086l-0.026-0.002l-5.271,44.281
					c-0.085,0.394-0.134,0.803-0.134,1.227c0,3.17,2.573,5.738,5.738,5.738c3.167,0,5.734-2.568,5.734-5.738l0.057,0.008
					l1.126-11.462c0.408-2.309,2.765-4.199,5.55-3.645c2.062,0.416,2.538,2.327,2.646,3.136l-0.646,6.342l0.035,0.001
					c-0.187,2.064-0.328,8.825,5.38,12.038c0.637,0.434,1.368,0.752,2.17,0.912c3.235,0.653,6.384-1.441,7.033-4.672
					C121.779,168.664,120.722,166.284,118.79,164.973"/>
				<path clip-path="url(#SVGID_14_)" fill="#007CBA" d="M57.854,165.162c-1.843-4.524-7.444,0.425-11.741,0.87
					c-6.445,0.669-6.228-2.568-5.95-2.529c5.526,0.764,15.638-1.821,17.239-9.815c1.313-6.547-2.053-13.712-11.465-13.611
					c-5.917,0.061-12.583,4.347-15.142,12.616c-1.212,3.925-1.469,8.878,0.173,12.966C37.745,182.563,61.486,171.556,57.854,165.162
					 M39.348,155.602c-0.37-1.584,0.379-3.314,1.25-4.786c2.999-5.053,10.422-3.108,8.725,0.929c0,0-1.187,3.371-6.471,3.88
					C42.853,155.624,39.418,155.902,39.348,155.602"/>
				<path clip-path="url(#SVGID_14_)" fill="#007CBA" d="M22.269,114.72c-0.005,0.105,0,0.211,0.022,0.314
					c2.375,10.048,3.448,10.725,3.854,10.973c1.134,0.709,5.891,1.248,8.628,1.508c0.035,0.002,0.076,0.003,0.109,0.003
					c0,0,0.003-0.001,0.007-0.001c4.804,0.615,11.882,1.323,19.53,1.405h0.016c0.033,0,0.063-0.007,0.096-0.009
					c0.031,0.002,0.063,0.009,0.096,0.009h0.016c0.396-0.007,0.787-0.016,1.179-0.021c0.009,0,0.015,0.002,0.023,0.002
					c0.01,0,0.021-0.002,0.03-0.002c6.832-0.134,13.108-0.75,18.116-1.428c2.776-0.271,7.152-0.788,8.235-1.466
					c0.398-0.248,1.472-0.925,3.846-10.973c0-0.004,0.004-0.008,0.004-0.015l1.832-8.276c0.078-0.337,0-0.691-0.198-0.966
					c-0.205-0.278-0.524-0.455-0.866-0.482l-6.61-0.548c-0.13-0.008-0.261,0-0.385,0.03h-0.087
					c-0.325-0.006-0.936-0.012-1.495,0.393c-0.472,0.337-0.701,0.838-0.943,1.364c-0.087,0.19-0.183,0.398-0.299,0.612
					c-1.322,2.456-3.23,3.589-5.506,3.271c-3.185-0.442-3.488-4.032-3.501-5.257c0.052-0.39,0.12-1.484-0.527-2.402
					c-0.098-0.127-0.214-0.237-0.344-0.323l-11.908-7.493c-0.36-0.528-1.078-0.689-1.628-0.339l-12.349,7.835
					c-0.132,0.083-0.247,0.193-0.336,0.32c-0.647,0.916-0.582,2.013-0.532,2.402c-0.012,1.225-0.314,4.814-3.5,5.257
					c-2.285,0.315-4.182-0.815-5.503-3.271c-0.122-0.214-0.212-0.422-0.298-0.612c-0.246-0.526-0.476-1.027-0.95-1.369
					c-0.558-0.399-1.16-0.391-1.495-0.388h-0.085c-0.124-0.03-0.257-0.038-0.382-0.03l-6.61,0.548
					c-0.342,0.027-0.658,0.204-0.864,0.482c-0.205,0.274-0.279,0.629-0.205,0.966L22.269,114.72z M25.227,116.937l2.053,0.97
					c0.841,1.513,1.452,4.654,1.729,6.459c-0.711-0.124-1.248-0.243-1.509-0.35C27.015,123.273,26.065,120.163,25.227,116.937
					 M53.367,126.485c-0.014-0.002-1.328-0.658-1.328-7.702c0-5.18,1.604-7.971,2.257-7.971c0.652,0,2.255,2.791,2.255,7.98
					c0,2.088,0,6.93-0.782,7.716c-0.384,0.008-0.766,0.016-1.152,0.022c-0.028,0-0.057,0.007-0.084,0.009
					c-0.028-0.002-0.055-0.009-0.082-0.009c-0.34-0.007-0.683-0.012-1.02-0.017C53.403,126.507,53.387,126.494,53.367,126.485
					 M80.871,124.014c-0.29,0.11-0.883,0.238-1.646,0.373c0.273-1.802,0.888-4.962,1.732-6.48l2.197-1.039
					C82.317,120.112,81.36,123.258,80.871,124.014 M65.645,104.862c-0.014,0.069-0.017,0.142-0.017,0.215
					c-0.012,4.274,2.121,7.23,5.566,7.712c3.253,0.455,6.151-1.191,7.939-4.509c0.139-0.263,0.262-0.514,0.364-0.746
					c0.048-0.114,0.117-0.261,0.174-0.367c0.021,0.001,0.043,0.001,0.064,0.001c0.135,0,0.295,0.005,0.478-0.023l5.067,0.418
					l-1.396,6.317l-4.274,2.015c-0.196,0.093-0.363,0.235-0.486,0.415c-1.454,2.194-2.196,7.139-2.356,8.345
					c-0.948,0.145-1.962,0.296-3.04,0.442c-0.116,0.014-0.238,0.021-0.36,0.036c-0.063,0.003-0.124,0.021-0.189,0.037
					c-4.209,0.555-9.277,1.063-14.798,1.266c0.181-0.625,0.265-1.215,0.312-1.562c0.251-1.824,0.251-4.086,0.251-6.091
					c0-4.438-1.187-8.914-3.465-10.07l-0.054-10.824l10.181,6.402C65.673,104.499,65.665,104.758,65.645,104.862 M28.203,107.145
					c0.134,0.022,0.26,0.023,0.372,0.023c0.057,0,0.112,0,0.17-0.001c0.055,0.106,0.12,0.253,0.171,0.367
					c0.107,0.232,0.222,0.483,0.364,0.746c1.785,3.317,4.677,4.964,7.94,4.509c3.444-0.481,5.576-3.434,5.566-7.712
					c0-0.061-0.013-0.139-0.019-0.202c-0.018-0.114-0.028-0.376,0.042-0.584l10.226-6.488l0.05,10.932
					c-2.259,1.18-3.437,5.633-3.437,10.049c0,3.506,0.294,6.009,0.915,7.65c-8.307-0.312-15.501-1.261-19.104-1.811
					c-0.164-1.252-0.899-6.139-2.351-8.313c-0.118-0.18-0.288-0.322-0.481-0.415l-4.076-1.924l-1.419-6.408L28.203,107.145z"/>
				<path clip-path="url(#SVGID_14_)" fill="#007CBA" d="M74.266,149.863c1.606,0.531,4.519,1.717,6.12,1.033
					c1.992-0.854,3.283-2.946,3.159-5.11c-0.118-2.129-1.414-3.807-3.146-4.58l0.009-0.028c0,0-11.74-5.076-17.052,3.548
					c-4.293,6.967-1.029,12.085,2.142,13.453c2.141,0.912,9.033,2.621,8.639,5.462c0,0-0.793,3.285-7.78-0.884
					c-6.888-4.105-9.925,5.558-2.582,9.278c7.343,3.718,0,0,0,0c3.049,1.541,8.175,3.194,13.961,1.354
					c8.413-2.673,8.278-14.44,2.92-17.631c-5.354-3.183-9.628-2.639-8.325-5.206C72.706,149.811,73.542,149.75,74.266,149.863"/>
			</g>
		</g>
	</g>
</g>
</svg>
