<svg xmlns="http://www.w3.org/2000/svg" viewBox="0 440.172 339.503 159.828"><path fill="none" d="M211.494 503.183h-1c-5.993 0-10.866 3.92-10.866 8.74v5.04h22.63v-5.04c.002-4.82-4.827-8.74-10.764-8.74zM105.613 511.924c0-4.82-4.827-8.74-10.764-8.74h-1.1c-5.94 0-10.77 3.92-10.77 8.74v16.31c0 4.82 4.83 8.74 10.77 8.74h1.1c5.937 0 10.763-3.92 10.763-8.74v-16.31z"/><path fill="none" d="M7.183 446.9v146.372h325.135V446.9H7.183zm43.028 96.05h-.896c-6.414 0-14.91-3.5-18.025-9.355-.5-.763-.538-1.852-.047-2.747.542-.992 1.692-1.636 2.926-1.636 1.206 0 2.26.607 2.82 1.623 1.92 3.514 8.09 6.14 12.323 6.14h.897c1.964 0 11.765-.357 11.765-7.396 0-5.093-4.73-6.855-12.9-8.18-4.07-.66-16.435-2.674-16.435-11.493v-.757c0-8.205 8.592-11.942 16.574-11.942h.6c7.058 0 11.722 2.824 14.618 4.946 1.084.832 1.508 2.128 1.106 3.318-.633 1.873-3.37 2.665-5.027 1.4-2.152-1.576-5.625-3.69-10.696-3.69h-.6c-.422 0-10.367.068-10.367 5.966v.757c0 2.334 4.203 4.482 11.24 5.746 7.676 1.326 18.2 3.14 18.2 13.926-.003 9.873-9.74 13.375-18.076 13.375zm61.71-14.715c0 8.114-7.66 14.716-17.072 14.716h-1.1c-9.414 0-17.075-6.6-17.075-14.715v-16.31c0-8.114 7.662-14.717 17.076-14.717h1.098c9.414 0 17.07 6.602 17.07 14.716v16.31zm45.885 17.655c0 8.113-7.658 14.716-17.073 14.716h-1.1c-6.994 0-15.3-3.296-17.74-9.596-.33-.557-.33-1.094-.33-1.335 0-1.82 1.663-2.95 3.202-2.95 1.336 0 2.472.772 2.96 2.01 1.23 3.374 6.348 5.894 11.91 5.894h1.1c5.94 0 10.77-3.92 10.77-8.74v-6.002c-2.955 1.926-6.866 3.062-10.79 3.062h-1.097c-9.415 0-17.073-6.64-17.073-14.8v-27.913c0-1.697 1.364-3.028 3.102-3.028 1.826 0 3.203 1.3 3.203 3.027v27.914c0 4.864 4.828 8.825 10.767 8.825h1.098c5.496 0 10.245-3.16 10.81-7.193l-.02-.95v-28.595c0-1.697 1.363-3.028 3.103-3.028 1.54 0 3.2 1.157 3.2 3.027v45.653h-.003zm25.97-2.94c-7.672 0-13.683-5.245-13.683-11.94v-48.345c0-1.7 1.36-3.03 3.1-3.03 1.857 0 3.205 1.273 3.205 3.03v48.344c0 3.286 3.308 5.964 7.377 5.964 1.037 0 1.98.494 2.507 1.1.44.503.522.904.522.904.115.317.176.663.176 1.026-.005 1.452-1.205 2.947-3.204 2.947zm44.793-23.04c0 1.67-1.435 3.03-3.2 3.03H199.63v5.294c0 4.82 4.83 8.74 10.767 8.74h1.1c4.587 0 8.702-2.454 10.232-6.105.19-1.016 1.387-1.882 2.836-1.882 1.853 0 3.305 1.293 3.305 2.945 0 .406-.115.728-.172.882l-.083.242c-2.377 5.917-8.855 9.894-16.12 9.894h-1.1c-9.414 0-17.072-6.6-17.072-14.715v-16.31c0-8.114 7.702-14.717 17.172-14.717h.797c9.847 0 17.276 6.327 17.276 14.716v7.986zm46.1 20.01c0 1.873-1.663 3.03-3.205 3.03-1.743 0-3.106-1.33-3.106-3.03v-27.913c0-4.864-4.874-8.824-10.865-8.824h-1c-5.892 0-10.87 3.658-10.87 7.986v28.748c0 1.727-1.374 3.032-3.2 3.032-1.74 0-3.104-1.33-3.104-3.032v-39.68c0-1.68 1.334-2.947 3.104-2.947 1.856 0 3.2 1.24 3.2 2.948v.07c2.96-1.95 6.897-3.1 10.87-3.1h1c9.47 0 17.173 6.64 17.173 14.8v27.91h.002zm27.852 3.03c-7.67 0-13.678-5.245-13.678-11.94v-27.657h-3.285c-1.43 0-2.45-.758-2.928-1.723 0 0-.256-.533-.278-.9-.02-.215-.025-.245-.025-.365 0-1.468 1.207-2.988 3.23-2.988h3.284v-14.793c0-1.675 1.383-2.99 3.15-2.99 1.77 0 3.154 1.315 3.154 2.99v14.793h6.776c1.974 0 3.154 1.52 3.154 2.988 0 1.47-1.18 2.99-3.154 2.99h-6.776v27.655c0 3.345 3.24 5.965 7.374 5.965 1.976 0 3.156 1.52 3.156 2.986.002 1.47-1.178 2.99-3.154 2.99z"/><path fill="#231F20" d="M50.086 515.653c-7.038-1.265-11.24-3.412-11.24-5.746v-.757c0-5.9 9.944-5.966 10.367-5.966h.6c5.07 0 8.543 2.114 10.696 3.69 1.657 1.265 4.393.473 5.026-1.4.404-1.19-.022-2.486-1.106-3.318-2.897-2.123-7.56-4.947-14.62-4.947h-.598c-7.982 0-16.574 3.736-16.574 11.94v.758c0 8.82 12.366 10.833 16.435 11.494 8.17 1.325 12.9 3.085 12.9 8.178 0 7.04-9.8 7.396-11.765 7.396h-.897c-4.233 0-10.4-2.626-12.322-6.14-.56-1.016-1.614-1.623-2.82-1.623-1.236 0-2.386.643-2.927 1.636-.49.895-.45 1.983.047 2.746 3.117 5.857 11.61 9.356 18.025 9.356h.897c8.334 0 18.072-3.5 18.072-13.372.002-10.787-10.522-12.603-18.196-13.927zM94.85 497.208h-1.1c-9.415 0-17.076 6.602-17.076 14.716v16.31c0 8.115 7.662 14.717 17.076 14.717h1.1c9.413 0 17.07-6.6 17.07-14.715v-16.31c0-8.115-7.658-14.717-17.07-14.717zm0 39.766h-1.1c-5.94 0-10.77-3.92-10.77-8.74v-16.31c0-4.82 4.83-8.74 10.77-8.74h1.1c5.937 0 10.763 3.92 10.763 8.74v16.31c0 4.82-4.827 8.74-10.764 8.74zM154.604 497.208c-1.74 0-3.104 1.33-3.104 3.028v28.596l.02.95c-.564 4.033-5.313 7.192-10.81 7.192h-1.097c-5.94 0-10.768-3.96-10.768-8.824v-27.914c0-1.727-1.377-3.028-3.203-3.028-1.74 0-3.102 1.33-3.102 3.028v27.914c0 8.16 7.658 14.8 17.073 14.8h1.098c3.924 0 7.836-1.137 10.79-3.063v6.002c0 4.82-4.83 8.738-10.77 8.738h-1.098c-5.563 0-10.68-2.52-11.912-5.893-.486-1.24-1.62-2.01-2.96-2.01-1.538 0-3.2 1.127-3.2 2.95 0 .24 0 .778.33 1.334 2.438 6.3 10.745 9.595 17.74 9.595h1.1c9.414 0 17.072-6.602 17.072-14.716v-45.655c.003-1.87-1.66-3.027-3.198-3.027zM186.28 538.073c-.526-.606-1.47-1.1-2.506-1.1-4.07 0-7.377-2.677-7.377-5.964v-48.345c0-1.757-1.348-3.03-3.204-3.03-1.74 0-3.1 1.33-3.1 3.03v48.344c0 6.695 6.01 11.94 13.68 11.94 2 0 3.2-1.493 3.205-2.945 0-.363-.06-.71-.176-1.026 0 0-.082-.404-.52-.907zM211.29 497.208h-.796c-9.468 0-17.172 6.602-17.172 14.716v16.31c0 8.115 7.658 14.717 17.073 14.717h1.1c7.264 0 13.742-3.976 16.12-9.893l.082-.242c.057-.154.173-.475.173-.882 0-1.65-1.452-2.945-3.305-2.945-1.447 0-2.645.866-2.837 1.88-1.532 3.653-5.645 6.105-10.233 6.105h-1.1c-5.937 0-10.766-3.92-10.766-8.74v-5.292h25.736c1.767 0 3.2-1.36 3.2-3.03v-7.988c.002-8.387-7.426-14.714-17.275-14.714zm10.97 14.716v5.04h-22.63v-5.04c0-4.82 4.873-8.74 10.866-8.74h1c5.935 0 10.764 3.918 10.764 8.74zM257.494 497.208h-1c-3.972 0-7.91 1.15-10.87 3.1v-.07c0-1.705-1.344-2.946-3.2-2.946-1.77 0-3.104 1.267-3.104 2.947v39.68c0 1.7 1.364 3.03 3.104 3.03 1.826 0 3.2-1.304 3.2-3.03v-28.75c0-4.328 4.976-7.986 10.87-7.986h1c5.99 0 10.865 3.96 10.865 8.824v27.912c0 1.7 1.363 3.032 3.105 3.032 1.542 0 3.204-1.16 3.204-3.032v-27.91c-.003-8.16-7.708-14.802-17.176-14.802zM302.52 536.974c-4.135 0-7.374-2.62-7.374-5.965v-27.657h6.776c1.974 0 3.154-1.52 3.154-2.99 0-1.467-1.18-2.987-3.154-2.987h-6.776v-14.793c0-1.675-1.384-2.99-3.154-2.99-1.767 0-3.15 1.315-3.15 2.99v14.793h-3.284c-2.023 0-3.23 1.52-3.23 2.988 0 .12.005.15.026.365.022.366.277.9.277.9.48.964 1.5 1.722 2.93 1.722h3.284v27.656c0 6.696 6.007 11.942 13.678 11.942 1.976 0 3.156-1.52 3.156-2.99-.002-1.466-1.182-2.986-3.158-2.986z"/><path fill="#231F20" d="M0 440.172V600h339.503V440.172H0zm7.183 153.1V446.9h325.135v146.372H7.183z"/></svg>